<svg id="Layer_1" data-name="Layer 1" xmlns="http://www.w3.org/2000/svg" width="1419.33" height="274.66" viewBox="0 0 1419.33 274.66"><defs><style>.cls-1{fill:#fff;}.cls-2{stroke:#fff;stroke-miterlimit:10;}</style></defs><rect class="cls-1" width="1419.33" height="274.66" rx="137.33"/><path class="cls-2" d="M413.8,153c0,14.56-13.12,23.11-33.82,23.11H314.85V91.87h60.31c20.71,0,33.83,8.31,33.83,21.79,0,9.51-6.62,17.82-19.26,18.54C403,133,413.8,140,413.8,153Zm-74.63-27.57h31.9c8.18,0,13.6-1.81,13.6-8.31s-5.42-8.18-13.6-8.18h-31.9Zm49.47,24.68c0-6.86-5.17-8.79-13.84-8.79H339.17V159H374.8C383.47,159,388.64,157,388.64,150.14Z"/><path class="cls-2" d="M507,109.45v66.69H483.25v-10.6c-5.66,8.31-15.53,13-27.44,13-19.38,0-29.86-12.4-29.86-29.86V109.45h23.72v37.68c0,8.66,4.93,13.72,14,13.72,7.95,0,14.57-3.73,19.62-11.92V109.45Z"/><path class="cls-2" d="M522,91.51c0-6.74,5.66-11.19,13.72-11.19s13.6,4.45,13.6,11.19-5.65,11.2-13.6,11.2S522,98.25,522,91.51Zm25.76,84.63H523.93V109.45h23.84Z"/><path class="cls-2" d="M564.5,176.14V87.06h23.83v89.08Z"/><path class="cls-2" d="M661,172.16c-6,4.1-15.41,6.51-23.48,6.51-15.16,0-26.6-8.31-26.6-24.44v-28h-11.8V109.45H611V93.92h23.71v15.53h25.64v16.73H634.67v24.08c0,6,4.46,9.51,10.84,9.51,4,0,7.7-1.33,11.55-3.13Z"/><path class="cls-2" d="M699.19,142.79c0-22.39,16.85-36,43.69-36s43.58,13.6,43.58,36-16.85,36.12-43.58,36.12S699.19,165.06,699.19,142.79Zm64.64,0c0-11.79-8.79-17.81-21-17.81s-20.94,6-20.94,17.81,8.79,17.82,20.94,17.82S763.83,154.47,763.83,142.79Z"/><path class="cls-2" d="M799.34,176.14V109.45h23.71V120c5.66-8.3,15.53-13,27.44-13,19.39,0,29.86,12.4,29.86,29.86v39.24H856.63V138.46c0-8.67-4.93-13.72-14-13.72-7.82,0-14.56,3.73-19.62,11.91v39.49Z"/><path class="cls-2" d="M953.77,111.25v16H1007v19.15H953.77v29.73H929.21V91.87h88.24v19.38Z"/><path class="cls-2" d="M1028.88,176.14V87.06h23.83v89.08Z"/><path class="cls-2" d="M1065.71,142.79c0-22.39,16.85-36,43.7-36s43.57,13.6,43.57,36-16.85,36.12-43.57,36.12S1065.71,165.06,1065.71,142.79Zm64.64,0c0-11.79-8.78-17.81-20.94-17.81s-21,6-21,17.81,8.79,17.82,21,17.82S1130.35,154.47,1130.35,142.79Z"/><path class="cls-2" d="M1278.89,109.45l-23.71,66.69h-22.63l-15.17-44.3-15.29,44.3h-22.75l-23.59-66.69h22.87l13.84,42.61L1207,109.45h21l14.56,42.61,13.84-42.61Z"/><circle cx="140.37" cy="137.33" r="118.69"/><rect class="cls-1" x="158.94" y="118.76" width="33.51" height="33.51"/><path class="cls-1" d="M125.43,164.84a12.57,12.57,0,1,1-12.57-12.57h12.57V118.76H112.86a46.08,46.08,0,1,0,46.08,46.08V152.27H125.43Z"/><path class="cls-1" d="M171.51,102h37.7V68.49h-37.7a46.13,46.13,0,0,0-46.08,46.08v4.19h33.51v-4.19A12.59,12.59,0,0,1,171.51,102Z"/><polygon points="125.43 152.27 158.94 152.27 158.94 152.27 158.94 118.76 158.94 118.76 125.43 118.76 125.43 152.27"/></svg>